name Walk6.mot
datacolumns 19
datarows 10
range 4.79500000 4.84000000
endheader

                time	   L_ground_force_vx	   L_ground_force_vy	   L_ground_force_vz	   L_ground_force_px	   L_ground_force_py	   L_ground_force_pz	   R_ground_force_vx	   R_ground_force_vy	   R_ground_force_vz	   R_ground_force_px	   R_ground_force_py	   R_ground_force_pz	   L_ground_torque_x	   L_ground_torque_y	   L_ground_torque_z	   R_ground_torque_x	   R_ground_torque_y	   R_ground_torque_z	
          4.79500000	          0.00000000	         -0.00000000	         -0.00000000	          0.00000000	          0.00000000	          0.00000000	          7.36060315	         96.33260365	          3.83642920	          0.26615087	          0.00000000	          0.09287691	          0.00000000	         -0.00000000	          0.00000000	          0.00000000	         -4.31015100	          0.00000000	
          4.80000000	          0.00000000	          0.00000000	         -0.00000000	          0.00000000	          0.00000000	          0.00000000	          2.93566623	         71.19979714	          3.55725128	          0.25274117	          0.00000000	          0.08445164	          0.00000000	         -0.00000000	          0.00000000	          0.00000000	         -3.40192206	          0.00000000	
          4.80500000	          0.00000000	          0.00000000	         -0.00000000	          0.00000000	          0.00000000	          0.00000000	         -0.50506641	         50.40368535	          3.15839023	          0.23417614	          0.00000000	          0.07494417	          0.00000000	         -0.00000000	          0.00000000	          0.00000000	         -2.58802992	          0.00000000	
          4.81000000	          0.00000000	          0.00000000	          0.00000000	          0.00000000	          0.00000000	          0.00000000	         -2.92225525	         33.61749700	          2.69176408	          0.21033090	          0.00000000	          0.06453324	          0.00000000	         -0.00000000	          0.00000000	          0.00000000	         -1.88255732	          0.00000000	
          4.81500000	          0.00000000	          0.00000000	          0.00000000	          0.00000000	          0.00000000	          0.00000000	         -4.36419004	         20.42694437	          2.19759842	          0.18178719	          0.00000000	          0.05354322	          0.00000000	          0.00000000	          0.00000000	          0.00000000	         -1.29090019	          0.00000000	
          4.82000000	          0.00000000	          0.00000000	          0.00000000	         -0.00000000	          0.00000000	          0.00000000	         -4.97560583	         10.40847850	          1.71119655	          0.15010330	          0.00000000	          0.04248219	          0.00000000	          0.00000000	          0.00000000	          0.00000000	         -0.81194926	          0.00000000	
          4.82500000	          0.00000000	          0.00000000	          0.00000000	         -0.00000000	          0.00000000	         -0.00000000	         -4.97595272	          3.16359737	          1.26415721	          0.11798004	          0.00000000	          0.03204325	          0.00000000	          0.00000000	          0.00000000	          0.00000000	         -0.44074487	          0.00000000	
          4.83000000	          0.00000000	          0.00000000	          0.00000000	         -0.00000000	          0.00000000	         -0.00000000	         -4.58263748	         -1.73260685	          0.87749999	          0.08804922	          0.00000000	          0.02281473	          0.00000000	          0.00000000	          0.00000000	          0.00000000	         -0.16784110	          0.00000000	
          4.83500000	          0.00000000	          0.00000000	          0.00000000	         -0.00000000	          0.00000000	         -0.00000000	         -3.96798082	         -4.73541951	          0.56014456	          0.06189154	          0.00000000	          0.01509229	          0.00000000	          0.00000000	          0.00000000	          0.00000000	          0.02044101	          0.00000000	
          4.84000000	          0.00000000	          0.00000000	          0.00000000	         -0.00000000	          0.00000000	         -0.00000000	         -3.25999411	         -6.28655068	          0.31233001	          0.04022225	          0.00000000	          0.00894642	          0.00000000	          0.00000000	          0.00000000	          0.00000000	          0.13956604	          0.00000000	
